<?xml version="1.0" encoding="utf-8"?>
<!-- Generator: Adobe Illustrator 25.0.0, SVG Export Plug-In . SVG Version: 6.00 Build 0)  -->
<svg version="1.1" id="Layer_1" xmlns="http://www.w3.org/2000/svg" xmlns:xlink="http://www.w3.org/1999/xlink" x="0px" y="0px"
	 viewBox="0 0 382.02 526.93" style="enable-background:new 0 0 382.02 526.93;" xml:space="preserve">
<style type="text/css">
	.st0{fill:none;}
	.st1{fill:#517BBD;}
	.st2{fill:#31A853;}
	.st3{fill:#E84336;}
	.st4{fill:#FBBC0A;}
</style>
<g>
	<rect x="137.39" y="-67.75" class="st0" width="84.04" height="300"/>
	<g>
		<path class="st0" d="M256.31,103.41c-0.21-0.24-0.43-0.48-0.64-0.71c0.9,1.07,0.6,2.7-0.64,3.38l0.75-0.41
			c0.96-0.52,2.17-0.29,2.82,0.58c0.3,0.4,0.58,0.81,0.87,1.21c-0.17-0.23-0.32-0.47-0.49-0.71c-0.79-1.08-0.44-2.6,0.73-3.25
			l-0.67,0.37C258.12,104.37,256.98,104.19,256.31,103.41z"/>
		<path class="st0" d="M259.73,311.53c-15.52-14.04-43.48-21.06-83.87-21.06H96.81c-1.23,0-2.23,1-2.23,2.23v123.68l179.78-86.38
			C270.66,323.18,265.8,317.02,259.73,311.53z"/>
		<path class="st0" d="M94.58,445.64c0,1.23,1,2.23,2.23,2.23h83.49c38.42,0,65.14-7.39,80.17-22.17
			c15.02-14.78,22.53-34.48,22.53-59.11c0-13.79-2.89-25.98-8.65-36.59L94.58,416.38V445.64z"/>
		<path class="st0" d="M255.02,106.07c1.23-0.68,1.53-2.31,0.64-3.38c-0.12-0.14-0.25-0.28-0.37-0.41
			c-0.19-0.21-0.38-0.41-0.58-0.62c-0.24-0.25-0.48-0.5-0.73-0.75c-0.2-0.2-0.4-0.4-0.6-0.6c-0.25-0.24-0.5-0.49-0.76-0.73
			c-0.21-0.19-0.41-0.39-0.62-0.58c-0.26-0.24-0.53-0.47-0.8-0.71c-0.21-0.18-0.42-0.37-0.64-0.55c-0.28-0.24-0.57-0.47-0.85-0.7
			c-0.21-0.17-0.42-0.35-0.64-0.51c-0.31-0.24-0.62-0.47-0.93-0.7c-0.21-0.15-0.41-0.31-0.62-0.46c-0.35-0.25-0.71-0.5-1.08-0.75
			c-0.18-0.12-0.36-0.25-0.54-0.37c-0.55-0.36-1.11-0.72-1.68-1.07c-17-10.34-43.72-15.52-80.17-15.52H96.81
			c-1.23,0-2.23,1-2.23,2.23v110.36c0,1.69,1.81,2.76,3.29,1.95l51.18-28.05L255.02,106.07
			C255.02,106.07,255.02,106.07,255.02,106.07z"/>
		<path class="st0" d="M96.81,214.36h74.62c37.43,0,63.18-5.91,77.22-17.73c14.04-11.82,21.06-29.3,21.06-52.46
			c0-0.96-0.01-1.91-0.04-2.85c-0.01-0.32-0.03-0.63-0.04-0.95c-0.03-0.62-0.05-1.23-0.09-1.84c-0.02-0.37-0.06-0.72-0.09-1.08
			c-0.04-0.55-0.08-1.1-0.13-1.64c-0.04-0.39-0.09-0.76-0.13-1.14c-0.06-0.5-0.11-1.01-0.17-1.51c-0.05-0.39-0.11-0.77-0.17-1.15
			c-0.07-0.48-0.14-0.96-0.22-1.43c-0.07-0.39-0.14-0.77-0.21-1.15c-0.08-0.46-0.17-0.91-0.26-1.36c-0.08-0.38-0.17-0.76-0.26-1.14
			c-0.1-0.44-0.2-0.88-0.3-1.32c-0.09-0.37-0.2-0.74-0.3-1.11c-0.11-0.43-0.22-0.85-0.35-1.27c-0.11-0.37-0.23-0.73-0.34-1.09
			c-0.13-0.41-0.25-0.82-0.39-1.23c-0.12-0.36-0.25-0.71-0.38-1.06c-0.14-0.4-0.28-0.8-0.43-1.19c-0.13-0.35-0.28-0.69-0.42-1.04
			c-0.16-0.38-0.31-0.77-0.48-1.15c-0.15-0.34-0.31-0.68-0.46-1.01c-0.17-0.37-0.34-0.74-0.52-1.11c-0.16-0.33-0.33-0.66-0.5-0.99
			c-0.18-0.36-0.37-0.72-0.56-1.07c-0.18-0.32-0.36-0.64-0.54-0.96c-0.2-0.35-0.4-0.69-0.6-1.04c-0.19-0.31-0.39-0.62-0.59-0.93
			c-0.21-0.33-0.42-0.67-0.65-1c-0.2-0.3-0.42-0.6-0.63-0.9c-0.29-0.41-0.57-0.82-0.87-1.21c-0.65-0.87-1.87-1.11-2.82-0.58
			l-0.75,0.41l-105.97,58.08l-53.32,29.22c-0.71,0.39-1.16,1.14-1.16,1.95v2.44v14.38C94.58,213.37,95.58,214.36,96.81,214.36z"/>
		<polygon class="st0" points="255.02,106.07 149.05,164.15 255.02,106.07 		"/>
		<path class="st1" d="M96.81,77.66h67.23c36.45,0,63.18,5.17,80.17,15.52c0.57,0.35,1.13,0.7,1.68,1.07
			c0.18,0.12,0.36,0.25,0.54,0.37c0.36,0.25,0.72,0.49,1.08,0.75c0.21,0.15,0.42,0.31,0.62,0.46c0.31,0.23,0.63,0.46,0.93,0.7
			c0.22,0.17,0.43,0.34,0.64,0.51c0.29,0.23,0.57,0.46,0.85,0.7c0.22,0.18,0.43,0.37,0.64,0.55c0.27,0.23,0.54,0.47,0.8,0.71
			c0.21,0.19,0.42,0.38,0.62,0.58c0.26,0.24,0.51,0.48,0.76,0.73c0.2,0.2,0.4,0.4,0.6,0.6c0.25,0.25,0.49,0.5,0.73,0.75
			c0.19,0.2,0.39,0.41,0.58,0.62c0.11,0.12,0.22,0.23,0.33,0.35c0.02,0.02,0.03,0.04,0.04,0.06c0.21,0.24,0.43,0.47,0.64,0.71
			c0.68,0.78,1.82,0.96,2.73,0.47l0.67-0.37c0,0,0,0,0,0l69.2-37.93l14.71-8.06c0,0,0,0,0,0c1.21-0.67,1.52-2.26,0.67-3.35
			c-7.91-10.11-17.86-18.55-29.88-25.28C279.18,9.2,227.33-0.66,158.87-0.66H2.23C1-0.66,0,0.33,0,1.56v240.52
			c0,1.69,1.81,2.76,3.29,1.95l90.13-49.4c0.71-0.39,1.16-1.14,1.16-1.95v-2.44V79.89C94.58,78.66,95.58,77.66,96.81,77.66z"/>
		<path class="st1" d="M255.29,102.28c0.13,0.14,0.25,0.28,0.37,0.41c-0.02-0.02-0.03-0.04-0.04-0.06
			C255.51,102.51,255.4,102.4,255.29,102.28z"/>
		<path class="st2" d="M331.03,269.41c-15.27-8.82-32.15-14.99-50.65-18.51c-1.05-0.2-1.81-1.11-1.81-2.18
			c0-1.07,0.77-1.98,1.83-2.18c27.67-5.14,48.99-17.85,63.93-38.09c15.26-20.69,22.9-46.3,22.9-76.85c0-30.13-6.75-54.69-20.2-73.73
			c-0.65-0.92-1.9-1.19-2.88-0.65l-0.54,0.29l-14.71,8.06l-69.2,37.93c-1.17,0.64-1.52,2.17-0.73,3.25
			c0.17,0.23,0.33,0.47,0.49,0.71c0.21,0.3,0.42,0.6,0.63,0.9c0.22,0.33,0.43,0.66,0.65,1c0.2,0.31,0.4,0.62,0.59,0.93
			c0.21,0.34,0.4,0.69,0.6,1.04c0.18,0.32,0.37,0.63,0.54,0.96c0.19,0.35,0.38,0.71,0.56,1.07c0.17,0.33,0.34,0.65,0.5,0.99
			c0.18,0.36,0.35,0.74,0.52,1.11c0.16,0.34,0.31,0.67,0.46,1.01c0.16,0.38,0.32,0.76,0.48,1.15c0.14,0.35,0.29,0.69,0.42,1.04
			c0.15,0.39,0.29,0.79,0.43,1.19c0.13,0.35,0.26,0.7,0.38,1.06c0.14,0.4,0.26,0.82,0.39,1.23c0.11,0.36,0.23,0.72,0.34,1.09
			c0.12,0.42,0.23,0.85,0.35,1.27c0.1,0.37,0.2,0.74,0.3,1.11c0.11,0.43,0.2,0.88,0.3,1.32c0.09,0.38,0.18,0.75,0.26,1.14
			c0.09,0.45,0.17,0.91,0.26,1.36c0.07,0.38,0.15,0.77,0.21,1.15c0.08,0.47,0.15,0.95,0.22,1.43c0.06,0.38,0.12,0.76,0.17,1.15
			c0.07,0.5,0.12,1,0.17,1.51c0.04,0.38,0.09,0.76,0.13,1.14c0.05,0.54,0.09,1.09,0.13,1.64c0.03,0.36,0.06,0.72,0.09,1.08
			c0.04,0.61,0.06,1.22,0.09,1.84c0.01,0.32,0.03,0.63,0.04,0.95c0.03,0.94,0.04,1.89,0.04,2.85c0,23.16-7.02,40.64-21.06,52.46
			c-14.04,11.82-39.79,17.73-77.22,17.73H96.81c-1.23,0-2.23-1-2.23-2.23v-14.38c0-1.69-1.81-2.76-3.29-1.95L1.16,245.2
			C0.44,245.59,0,246.34,0,247.15v2.38l356.05,40.84C348.93,281.94,340.6,274.95,331.03,269.41z"/>
		<path class="st3" d="M94.58,292.7c0-1.23,1-2.23,2.23-2.23h79.06c40.39,0,68.35,7.02,83.87,21.06
			c6.07,5.49,10.93,11.65,14.63,18.46l81.91-39.36c-0.07-0.09-0.14-0.18-0.22-0.26L0,249.54v212.29l94.58-45.45V292.7z"/>
		<path class="st4" d="M356.27,290.64l-81.91,39.36c5.75,10.6,8.65,22.79,8.65,36.59c0,24.64-7.51,44.34-22.53,59.11
			c-15.03,14.78-41.75,22.17-80.17,22.17H96.81c-1.23,0-2.23-1-2.23-2.23v-29.26L0,461.82v62.88c0,1.23,1,2.23,2.23,2.23h190.63
			c58.62,0,104.8-13.3,138.55-39.9c33.74-26.6,50.62-63.79,50.62-111.58c0-27.58-4.56-49.88-13.67-66.87
			C364.82,302,360.79,296.03,356.27,290.64z"/>
		<polygon points="259.71,103.51 328.91,65.58 259.71,103.51 		"/>
		<polygon points="328.91,65.58 343.62,57.52 343.62,57.52 		"/>
	</g>
</g>
</svg>
