<?xml version="1.0" encoding="utf-8"?>
<!-- Generator: Adobe Illustrator 25.0.0, SVG Export Plug-In . SVG Version: 6.00 Build 0)  -->
<svg version="1.1" id="Layer_1" xmlns="http://www.w3.org/2000/svg" xmlns:xlink="http://www.w3.org/1999/xlink" x="0px" y="0px"
	 viewBox="0 0 152.87 160.82" style="enable-background:new 0 0 152.87 160.82;" xml:space="preserve">
<style type="text/css">
	.st0{fill:#517CBE;}
	.st1{fill:#FFFFFF;}
	.st2{fill:#0B0F1B;}
</style>
<g>
	<g>
		<g>
			<path class="st0" d="M125.7,134.54H10.38c-4.43,0-8.01-3.59-8.01-8.01V11.21c0-4.43,3.59-8.02,8.01-8.02H125.7
				c4.43,0,8.01,3.59,8.01,8.02v115.32C133.71,130.95,130.12,134.54,125.7,134.54z"/>
		</g>
	</g>
	<g>
		<path class="st1" d="M24.99,54.74c2.71,0,4.77,0.39,6.17,1.17c1.4,0.78,2.09,2.14,2.09,4.07c0,1.21-0.3,2.23-0.91,3.05
			c-0.61,0.82-1.47,1.33-2.61,1.52v0.15c0.76,0.14,1.45,0.39,2.08,0.75c0.62,0.36,1.12,0.88,1.48,1.55
			c0.36,0.67,0.54,1.56,0.54,2.65c0,1.89-0.67,3.37-2.01,4.42c-1.34,1.06-3.17,1.58-5.49,1.58H18.7V54.74H24.99z M25.49,63.26
			c1.48,0,2.5-0.23,3.06-0.7c0.56-0.47,0.84-1.16,0.84-2.08c0-0.94-0.34-1.61-1.01-2.02s-1.73-0.61-3.18-0.61h-2.75v5.42H25.49z
			 M22.44,66.28v6.24h3.4c1.52,0,2.58-0.29,3.18-0.88c0.59-0.59,0.89-1.37,0.89-2.34c0-0.9-0.31-1.63-0.92-2.18
			c-0.61-0.56-1.72-0.83-3.32-0.83H22.44z"/>
		<path class="st1" d="M44.11,59.48c2.05,0,3.61,0.45,4.67,1.35c1.06,0.9,1.6,2.29,1.6,4.16v10.66h-2.61l-0.73-2.2h-0.12
			c-0.68,0.86-1.4,1.49-2.17,1.89c-0.76,0.4-1.8,0.6-3.1,0.6c-1.43,0-2.61-0.4-3.54-1.2c-0.94-0.8-1.41-2.04-1.41-3.72
			c0-1.64,0.6-2.87,1.8-3.69c1.2-0.82,3.02-1.28,5.46-1.38l2.75-0.09v-0.79c0-1-0.24-1.71-0.73-2.15c-0.49-0.44-1.17-0.66-2.05-0.66
			c-0.8,0-1.57,0.12-2.3,0.35c-0.73,0.23-1.46,0.51-2.18,0.82l-1.17-2.58c0.78-0.41,1.67-0.74,2.68-1
			C41.97,59.61,43.02,59.48,44.11,59.48z M44.79,68.21c-1.62,0.06-2.74,0.34-3.37,0.83s-0.94,1.17-0.94,2.01
			c0,0.76,0.22,1.3,0.66,1.63c0.44,0.32,1.02,0.48,1.74,0.48c1.07,0,1.98-0.31,2.72-0.92c0.74-0.61,1.11-1.53,1.11-2.74v-1.35
			L44.79,68.21z"/>
		<path class="st1" d="M63.5,59.48c1.78,0,3.17,0.46,4.17,1.38c1,0.92,1.51,2.4,1.51,4.45v10.34h-3.69v-9.6
			c0-2.38-0.98-3.57-2.93-3.57c-1.48,0-2.5,0.47-3.05,1.41c-0.55,0.94-0.82,2.28-0.82,4.01v7.76h-3.69V59.77h2.84l0.53,2.08h0.2
			c0.51-0.82,1.2-1.42,2.09-1.8C61.56,59.67,62.5,59.48,63.5,59.48z"/>
		<path class="st1" d="M82.3,59.48c1.78,0,3.17,0.46,4.17,1.38c1,0.92,1.51,2.4,1.51,4.45v10.34h-3.69v-9.6
			c0-2.38-0.98-3.57-2.93-3.57c-1.48,0-2.5,0.47-3.05,1.41c-0.55,0.94-0.82,2.28-0.82,4.01v7.76h-3.69V59.77h2.84l0.53,2.08h0.2
			c0.51-0.82,1.2-1.42,2.09-1.8C80.36,59.67,81.3,59.48,82.3,59.48z"/>
		<path class="st1" d="M98.99,59.48c2.13,0,3.81,0.63,5.05,1.9c1.24,1.27,1.86,3.04,1.86,5.3v1.87H95.42
			c0.04,1.45,0.44,2.56,1.2,3.35c0.76,0.79,1.81,1.19,3.16,1.19c1.01,0,1.93-0.1,2.75-0.31s1.66-0.5,2.52-0.89v2.96
			c-0.78,0.37-1.59,0.65-2.43,0.82c-0.84,0.18-1.85,0.26-3.02,0.26c-1.54,0-2.91-0.3-4.11-0.89c-1.2-0.6-2.14-1.5-2.81-2.71
			c-0.67-1.21-1.01-2.71-1.01-4.51c0-2.71,0.67-4.78,2.02-6.21C95.04,60.19,96.8,59.48,98.99,59.48z M98.99,62.21
			c-0.99,0-1.8,0.32-2.42,0.95c-0.61,0.63-0.97,1.58-1.07,2.83h6.82c-0.02-1.09-0.3-2-0.84-2.71
			C100.96,62.56,100.12,62.21,98.99,62.21z"/>
		<path class="st1" d="M117.94,59.48c0.25,0,0.53,0.01,0.84,0.03c0.3,0.02,0.56,0.06,0.78,0.12l-0.32,3.43
			c-0.2-0.04-0.43-0.07-0.7-0.1c-0.27-0.03-0.52-0.04-0.73-0.04c-0.78,0-1.51,0.16-2.2,0.48c-0.68,0.32-1.23,0.82-1.65,1.49
			c-0.42,0.67-0.63,1.52-0.63,2.53v8.23h-3.69V59.77h2.84l0.53,2.75h0.18c0.47-0.84,1.11-1.56,1.93-2.15
			C115.92,59.78,116.86,59.48,117.94,59.48z"/>
	</g>
	<g>
		<g>
			<g>
				<g>
					<g>
						<g>
							<path class="st1" d="M124.89,93.54c-2.91,1.46-4.26,5.09-2.94,8.25l-2.83-4.9c-1.84-2.85-5.65-3.73-8.53-2.02
								c-2.82,1.68-3.88,5.34-2.36,8.31l-2.38-4.12c-1.96-2.67-5.65-3.39-8.42-1.71c-2.68,1.63-3.76,5.07-2.47,8l-8.94-15.48
								c-2.07-2.41-5.59-2.96-8.23-1.33c-2.54,1.56-3.66,4.75-2.66,7.62l22.81,39.67l-11.61-7.62c-4.93-3.26-11.57-1.9-14.83,3.04
								l0,0c-0.57,0.86-0.33,2.02,0.53,2.59l25.32,17.75c9.88,6.93,22.88,7.5,33.33,1.46l7.73-4.46c10.39-6,13.95-19.28,7.95-29.67
								l-13.51-23.41C130.95,92.99,127.56,92.2,124.89,93.54z"/>
						</g>
						<g>
							<path class="st2" d="M115.18,158.8c-6.6,0-13.18-1.98-18.76-5.9l-25.32-17.75c-0.74-0.49-1.27-1.28-1.46-2.19
								c-0.19-0.92-0.01-1.85,0.51-2.63c1.81-2.75,4.59-4.63,7.82-5.28c3.24-0.67,6.52-0.03,9.27,1.79l5.9,3.87l-19.4-33.74
								c-1.38-3.84,0.03-7.85,3.21-9.82c3.32-2.04,7.76-1.33,10.33,1.66l6.21,10.73c0.63-1.45,1.69-2.71,3.12-3.57
								c3.19-1.94,7.34-1.32,9.9,1.33c0.62-1.55,1.74-2.91,3.27-3.82c3.61-2.15,8.42-1.02,10.72,2.52c0.72-1.65,1.98-3.05,3.67-3.9
								c3.44-1.72,7.63-0.69,9.99,2.44l13.62,23.57c6.44,11.15,2.6,25.46-8.54,31.89l-7.73,4.46
								C126.45,157.35,120.81,158.8,115.18,158.8z M80.45,128.05c-0.61,0-1.23,0.06-1.84,0.19c-2.37,0.48-4.42,1.87-5.76,3.89
								c-0.06,0.1-0.03,0.27,0.07,0.33l25.36,17.78c9.32,6.53,21.72,7.07,31.58,1.39l7.73-4.46c9.59-5.54,12.89-17.85,7.35-27.44
								l-13.51-23.4c-1.28-1.67-3.82-2.32-5.81-1.31l0,0c-2.16,1.08-3.14,3.85-2.17,6.16c0.33,0.79-0.01,1.71-0.78,2.09
								c-0.77,0.38-1.7,0.1-2.14-0.65l-2.83-4.9c-1.31-2.03-4.16-2.71-6.28-1.43c-2.11,1.25-2.87,3.96-1.74,6.16
								c0.4,0.79,0.1,1.75-0.67,2.18c-0.78,0.42-1.75,0.15-2.19-0.62l-2.38-4.12c-1.36-1.83-4.11-2.38-6.16-1.14
								c-2,1.22-2.79,3.78-1.83,5.95c0.35,0.79,0.02,1.72-0.75,2.11c-0.78,0.38-1.72,0.11-2.15-0.64l-8.94-15.48
								c-1.36-1.53-4-1.97-5.97-0.76c-1.89,1.17-2.72,3.56-1.97,5.69L99.36,135c0.38,0.65,0.25,1.48-0.3,2
								c-0.55,0.52-1.38,0.59-2.01,0.17l-11.61-7.62C83.93,128.56,82.21,128.05,80.45,128.05z M124.89,93.54h0.03H124.89z"/>
						</g>
					</g>
					<g>
						<g>
							<path class="st1" d="M94.13,103.89l9.34,16.17L94.13,103.89z"/>
						</g>
						<g>
							<path class="st2" d="M103.46,121.69c-0.56,0-1.11-0.29-1.41-0.81l-9.34-16.17c-0.45-0.78-0.18-1.78,0.6-2.23
								c0.78-0.46,1.78-0.18,2.23,0.6l9.34,16.17c0.45,0.78,0.18,1.78-0.6,2.23C104.02,121.62,103.74,121.69,103.46,121.69z"/>
						</g>
					</g>
					<g>
						<g>
							<path class="st1" d="M106.35,99.91l8,13.86L106.35,99.91z"/>
						</g>
						<g>
							<path class="st2" d="M114.36,115.4c-0.56,0-1.11-0.29-1.41-0.81l-8-13.86c-0.45-0.78-0.18-1.78,0.6-2.23
								c0.78-0.46,1.78-0.18,2.23,0.6l8,13.86c0.45,0.78,0.18,1.78-0.6,2.23C114.91,115.33,114.63,115.4,114.36,115.4z"/>
						</g>
					</g>
					<g>
						<g>
							<path class="st1" d="M119.25,97.08l6,10.4L119.25,97.08z"/>
						</g>
						<g>
							<path class="st2" d="M125.25,109.11c-0.56,0-1.11-0.29-1.41-0.82l-6-10.4c-0.45-0.78-0.18-1.78,0.6-2.23
								c0.78-0.46,1.78-0.19,2.23,0.6l6,10.4c0.45,0.78,0.18,1.78-0.6,2.23C125.81,109.04,125.53,109.11,125.25,109.11z"/>
						</g>
					</g>
				</g>
			</g>
		</g>
	</g>
</g>
</svg>
