<?xml version="1.0" ?><svg data-name="Слой 1" id="Слой_1" viewBox="0 0 128 128" xmlns="http://www.w3.org/2000/svg"><title/><path d="M126,13H76V2A2,2,0,0,0,75.27.46,2,2,0,0,0,73.62,0l-72,14A2,2,0,0,0,0,16v95a2,2,0,0,0,1.59,2l72,15a1.9,1.9,0,0,0,.41,0,2,2,0,0,0,2-2V115h50a2,2,0,0,0,2-2V15A2,2,0,0,0,126,13ZM72,123.54,4,109.37V17.65L72,4.43V123.54ZM124,111H76V98h35a2,2,0,0,0,0-4H76V85h35a2,2,0,0,0,0-4H76V72h35a2,2,0,0,0,0-4H76V59h35a2,2,0,0,0,0-4H76V46h35a2,2,0,0,0,0-4H76V32h35a2,2,0,0,0,0-4H76V17h48Z"/><path d="M54.48,41.06a2,2,0,0,0-2.42,1.45L43.88,75.22l-9-31.76A2,2,0,0,0,33,42a2,2,0,0,0-1.92,1.48L23.32,72.16,18,44.62a2,2,0,1,0-3.92.76l7,36a2,2,0,0,0,3.89.14l8.11-30,9,32A2,2,0,0,0,44,85h0a2,2,0,0,0,1.91-1.51l10-40A2,2,0,0,0,54.48,41.06Z"/></svg>