<?xml version="1.0" encoding="utf-8"?>
<!-- Generator: Adobe Illustrator 25.0.0, SVG Export Plug-In . SVG Version: 6.00 Build 0)  -->
<svg version="1.1" id="Layer_1" xmlns="http://www.w3.org/2000/svg" xmlns:xlink="http://www.w3.org/1999/xlink" x="0px" y="0px"
	 viewBox="0 0 203.39 262.09" style="enable-background:new 0 0 203.39 262.09;" xml:space="preserve">
<style type="text/css">
	.st0{fill:#5A852E;}
	.st1{fill:#D1B31C;}
</style>
<g>
	<g>
		<path class="st0" d="M201.95,122.35c0,41.09-11.47,72.02-34.39,92.79c-22.93,20.77-54.94,31.16-96.02,31.16H3.09V3.17h75.59
			c24.97,0,46.7,4.54,65.21,13.62c18.5,9.08,32.8,22.42,42.9,40.01C196.9,74.4,201.95,96.25,201.95,122.35z M156.32,123.71
			c0-29.05-6.64-50.4-19.92-64.02s-32.52-20.43-57.72-20.43H46.68v170.6H72.9C128.51,209.86,156.32,181.15,156.32,123.71z"/>
	</g>
	<g>
		<path class="st1" d="M183.32,227.07c0,5.72-1.46,11.15-4.37,16.28c-2.91,5.13-7.4,9.3-13.47,12.51
			c-6.07,3.21-13.94,4.81-23.61,4.81c-4.84,0-9.05-0.22-12.65-0.67c-3.6-0.44-6.98-1.16-10.14-2.15c-3.16-0.99-6.42-2.27-9.77-3.85
			v-25.46c5.72,2.86,11.49,5.06,17.32,6.59c5.82,1.53,11.1,2.29,15.84,2.29c4.24,0,7.35-0.74,9.32-2.22
			c1.97-1.48,2.96-3.35,2.96-5.62c0-2.76-1.46-5.01-4.37-6.73c-2.91-1.73-7.82-4.12-14.73-7.18c-5.23-2.47-9.77-5.06-13.62-7.77
			c-3.85-2.71-6.81-6.04-8.88-9.99c-2.07-3.94-3.11-8.93-3.11-14.95c0-6.81,1.68-12.51,5.03-17.09c3.35-4.59,8.01-8.04,13.99-10.36
			c5.97-2.32,12.9-3.48,20.79-3.48c6.9,0,13.12,0.77,18.65,2.29c5.52,1.53,10.46,3.28,14.8,5.25l-8.73,22.05
			c-4.54-2.07-9-3.72-13.39-4.96c-4.39-1.23-8.46-1.85-12.21-1.85c-3.65,0-6.34,0.64-8.07,1.92c-1.73,1.28-2.59,2.91-2.59,4.88
			c0,1.68,0.64,3.16,1.92,4.44c1.28,1.28,3.43,2.69,6.44,4.22c3.01,1.53,7.13,3.48,12.36,5.85c5.13,2.27,9.5,4.76,13.1,7.47
			c3.6,2.71,6.36,5.92,8.29,9.62S183.32,221.54,183.32,227.07z"/>
	</g>
</g>
</svg>
