<?xml version="1.0" encoding="utf-8"?>
<!-- Generator: Adobe Illustrator 25.0.0, SVG Export Plug-In . SVG Version: 6.00 Build 0)  -->
<svg version="1.1" id="Layer_1" xmlns="http://www.w3.org/2000/svg" xmlns:xlink="http://www.w3.org/1999/xlink" x="0px" y="0px"
	 viewBox="0 0 123.37 46.2" style="enable-background:new 0 0 123.37 46.2;" xml:space="preserve">
<style type="text/css">
	.st0{fill:#333333;}
</style>
<g>
	<path class="st0" d="M4.09,42.06c0-1.56,0.39-2.66,1.17-3.3c0.78-0.64,1.75-0.96,2.91-0.96c1.12,0,2.09,0.32,2.91,0.96
		c0.82,0.64,1.23,1.74,1.23,3.3s-0.41,2.68-1.23,3.36c-0.82,0.68-1.79,1.02-2.91,1.02c-1.16,0-2.13-0.34-2.91-1.02
		S4.09,43.62,4.09,42.06z"/>
	<path class="st0" d="M34.63,2.76c5.44,0,9.57,0.8,12.39,2.4c2.82,1.6,4.23,4.36,4.23,8.28c0,2.52-0.67,4.61-2.01,6.27
		c-1.34,1.66-3.25,2.71-5.73,3.15v0.3c1.68,0.28,3.21,0.8,4.59,1.56c1.38,0.76,2.47,1.83,3.27,3.21c0.8,1.38,1.2,3.19,1.2,5.43
		c0,3.88-1.36,6.89-4.08,9.03c-2.72,2.14-6.4,3.21-11.04,3.21H22.09V2.76H34.63z M35.71,20.64c3.36,0,5.67-0.54,6.93-1.62
		s1.89-2.68,1.89-4.8c0-2.12-0.76-3.65-2.28-4.59c-1.52-0.94-3.94-1.41-7.26-1.41h-6.42v12.42H35.71z M28.57,25.92V40.2h7.86
		c3.44,0,5.85-0.68,7.23-2.04c1.38-1.36,2.07-3.16,2.07-5.4c0-2.04-0.71-3.69-2.13-4.95c-1.42-1.26-3.95-1.89-7.59-1.89H28.57z"/>
	<path class="st0" d="M73.27,12.66c4.04,0,7.07,0.89,9.09,2.67c2.02,1.78,3.03,4.57,3.03,8.37v21.9h-4.5l-1.26-4.5h-0.24
		c-1.4,1.76-2.87,3.05-4.41,3.87c-1.54,0.82-3.67,1.23-6.39,1.23c-2.92,0-5.34-0.79-7.26-2.37c-1.92-1.58-2.88-4.05-2.88-7.41
		c0-3.28,1.24-5.78,3.72-7.5c2.48-1.72,6.3-2.66,11.46-2.82l5.52-0.18v-1.8c0-2.36-0.54-4.03-1.62-5.01
		c-1.08-0.98-2.6-1.47-4.56-1.47c-1.64,0-3.22,0.24-4.74,0.72c-1.52,0.48-2.98,1.06-4.38,1.74l-2.04-4.62
		c1.52-0.8,3.27-1.47,5.25-2.01S71.11,12.66,73.27,12.66z M74.77,30.18c-3.68,0.16-6.23,0.77-7.65,1.83
		c-1.42,1.06-2.13,2.55-2.13,4.47c0,1.68,0.5,2.9,1.5,3.66c1,0.76,2.3,1.14,3.9,1.14c2.48,0,4.55-0.7,6.21-2.1
		c1.66-1.4,2.49-3.5,2.49-6.3v-2.82L74.77,30.18z"/>
	<path class="st0" d="M101.47,22.8c0,0.8-0.04,1.76-0.12,2.88c-0.08,1.12-0.14,2.12-0.18,3h0.18c0.44-0.6,1.05-1.39,1.83-2.37
		c0.78-0.98,1.47-1.79,2.07-2.43l9.9-10.62h7.38l-13.02,13.86l13.86,18.48h-7.5l-10.68-14.46l-3.72,3.12V45.6h-6.3V0h6.3V22.8z"/>
</g>
</svg>
