<?xml version="1.0" encoding="utf-8"?>
<!-- Generator: Adobe Illustrator 25.0.0, SVG Export Plug-In . SVG Version: 6.00 Build 0)  -->
<svg version="1.1" id="Layer_1" xmlns="http://www.w3.org/2000/svg" xmlns:xlink="http://www.w3.org/1999/xlink" x="0px" y="0px"
	 viewBox="0 0 381.1 318.63" style="enable-background:new 0 0 381.1 318.63;" xml:space="preserve">
<style type="text/css">
	.st0{fill:#31A853;}
	.st1{fill:#E84336;}
	.st2{fill:#FBBC0A;}
	.st3{fill:#517BBD;}
	.st4{fill:#FFFFFF;}
	.st5{font-family:'NotoSans-SemiBold';}
	.st6{font-size:140px;}
</style>
<g>
	<rect x="89.61" y="0" class="st0" width="223.83" height="160.56"/>
	
		<rect x="158.14" y="64.8" transform="matrix(0.9758 0.2187 -0.2187 0.9758 38.0717 -53.739)" class="st1" width="207.23" height="160.56"/>
	
		<rect x="26.08" y="51.39" transform="matrix(0.866 -0.5 0.5 0.866 -47.1527 87.3646)" class="st2" width="226.74" height="160.56"/>
	<rect x="63.01" y="95.22" class="st3" width="282.98" height="223.4"/>
	<text transform="matrix(1 0 0 1 82.3186 263.6681)" class="st4 st5 st6">B</text>
	<path class="st4" d="M272.93,197.48H197.4c-6.17,0-11.17-5-11.17-11.17v0c0-6.17,5-11.17,11.17-11.17h75.53
		c6.17,0,11.17,5,11.17,11.17v0C284.1,192.48,279.1,197.48,272.93,197.48z"/>
	<path class="st4" d="M305.26,227.27H197.4c-6.17,0-11.17-5-11.17-11.17v0c0-6.17,5-11.17,11.17-11.17h107.87
		c6.17,0,11.17,5,11.17,11.17v0C316.43,222.26,311.43,227.27,305.26,227.27z"/>
	<path class="st4" d="M272.93,257.05H197.4c-6.17,0-11.17-5-11.17-11.17v0c0-6.17,5-11.17,11.17-11.17h75.53
		c6.17,0,11.17,5,11.17,11.17v0C284.1,252.05,279.1,257.05,272.93,257.05z"/>
</g>
</svg>
