<?xml version="1.0" encoding="utf-8"?>
<!-- Generator: Adobe Illustrator 25.0.0, SVG Export Plug-In . SVG Version: 6.00 Build 0)  -->
<svg version="1.1" id="Layer_1" xmlns="http://www.w3.org/2000/svg" xmlns:xlink="http://www.w3.org/1999/xlink" x="0px" y="0px"
	 viewBox="0 0 336.31 47.68" style="enable-background:new 0 0 336.31 47.68;" xml:space="preserve">
<style type="text/css">
	.st0{fill:#333333;}
</style>
<g>
	<path class="st0" d="M15.73,1.96c5.56,0,9.61,1.16,12.15,3.48c2.54,2.32,3.81,5.52,3.81,9.6c0,2.44-0.52,4.73-1.56,6.87
		c-1.04,2.14-2.79,3.86-5.25,5.16c-2.46,1.3-5.79,1.95-9.99,1.95h-4.26V44.8H2.95V1.96H15.73z M15.25,8.32h-4.62v14.34h3.48
		c3.12,0,5.53-0.57,7.23-1.71c1.7-1.14,2.55-3.01,2.55-5.61c0-2.36-0.7-4.12-2.1-5.28C20.39,8.9,18.21,8.32,15.25,8.32z"/>
	<path class="st0" d="M78.37,23.32c0,4.44-0.73,8.31-2.19,11.61c-1.46,3.3-3.69,5.87-6.69,7.71c-3,1.84-6.76,2.76-11.28,2.76
		c-4.56,0-8.33-0.92-11.31-2.76c-2.98-1.84-5.2-4.42-6.66-7.74c-1.46-3.32-2.19-7.2-2.19-11.64c0-4.4,0.73-8.25,2.19-11.55
		c1.46-3.3,3.68-5.86,6.66-7.68c2.98-1.82,6.77-2.73,11.37-2.73c4.52,0,8.27,0.91,11.25,2.73c2.98,1.82,5.2,4.38,6.66,7.68
		C77.64,15.01,78.37,18.88,78.37,23.32z M46.15,23.32c0,4.84,0.96,8.64,2.88,11.4c1.92,2.76,4.98,4.14,9.18,4.14
		c4.24,0,7.31-1.38,9.21-4.14c1.9-2.76,2.85-6.56,2.85-11.4c0-4.84-0.94-8.64-2.82-11.4c-1.88-2.76-4.94-4.14-9.18-4.14
		c-4.2,0-7.27,1.38-9.21,4.14C47.12,14.68,46.15,18.48,46.15,23.32z"/>
	<path class="st0" d="M99.67,1.96c5.64,0,9.81,1.04,12.51,3.12c2.7,2.08,4.05,5.24,4.05,9.48c0,2.08-0.39,3.86-1.17,5.34
		c-0.78,1.48-1.79,2.71-3.03,3.69c-1.24,0.98-2.58,1.77-4.02,2.37l12.3,18.84h-8.64l-10.26-16.92h-6.24V44.8h-7.68V1.96H99.67z
		 M99.19,8.38h-4.02v13.2h4.26c3.16,0,5.45-0.57,6.87-1.71c1.42-1.14,2.13-2.83,2.13-5.07c0-2.32-0.75-3.97-2.25-4.95
		C104.68,8.87,102.35,8.38,99.19,8.38z"/>
	<path class="st0" d="M141.61,44.8h-7.68V8.44h-12.3V1.96h32.28v6.48h-12.3V44.8z"/>
	<path class="st0" d="M168.01,44.8h-7.56V1.96h24.3v6.42h-16.74v12.6h15.6v6.42h-15.6V44.8z"/>
	<path class="st0" d="M231.01,23.32c0,4.44-0.73,8.31-2.19,11.61c-1.46,3.3-3.69,5.87-6.69,7.71c-3,1.84-6.76,2.76-11.28,2.76
		c-4.56,0-8.33-0.92-11.31-2.76c-2.98-1.84-5.2-4.42-6.66-7.74c-1.46-3.32-2.19-7.2-2.19-11.64c0-4.4,0.73-8.25,2.19-11.55
		c1.46-3.3,3.68-5.86,6.66-7.68c2.98-1.82,6.77-2.73,11.37-2.73c4.52,0,8.27,0.91,11.25,2.73c2.98,1.82,5.2,4.38,6.66,7.68
		C230.28,15.01,231.01,18.88,231.01,23.32z M198.79,23.32c0,4.84,0.96,8.64,2.88,11.4c1.92,2.76,4.98,4.14,9.18,4.14
		c4.24,0,7.31-1.38,9.21-4.14c1.9-2.76,2.85-6.56,2.85-11.4c0-4.84-0.94-8.64-2.82-11.4c-1.88-2.76-4.94-4.14-9.18-4.14
		c-4.2,0-7.27,1.38-9.21,4.14C199.76,14.68,198.79,18.48,198.79,23.32z"/>
	<path class="st0" d="M240.13,44.8V1.96h7.68v36.36h17.88v6.48H240.13z"/>
	<path class="st0" d="M287.65,44.8h-18v-4.38l5.16-1.92V8.32l-5.16-1.98V1.96h18v4.38l-5.16,1.98V38.5l5.16,1.92V44.8z"/>
	<path class="st0" d="M333.61,23.32c0,4.44-0.73,8.31-2.19,11.61c-1.46,3.3-3.69,5.87-6.69,7.71c-3,1.84-6.76,2.76-11.28,2.76
		c-4.56,0-8.33-0.92-11.31-2.76c-2.98-1.84-5.2-4.42-6.66-7.74c-1.46-3.32-2.19-7.2-2.19-11.64c0-4.4,0.73-8.25,2.19-11.55
		c1.46-3.3,3.68-5.86,6.66-7.68c2.98-1.82,6.77-2.73,11.37-2.73c4.52,0,8.27,0.91,11.25,2.73c2.98,1.82,5.2,4.38,6.66,7.68
		C332.88,15.01,333.61,18.88,333.61,23.32z M301.39,23.32c0,4.84,0.96,8.64,2.88,11.4c1.92,2.76,4.98,4.14,9.18,4.14
		c4.24,0,7.31-1.38,9.21-4.14c1.9-2.76,2.85-6.56,2.85-11.4c0-4.84-0.94-8.64-2.82-11.4c-1.88-2.76-4.94-4.14-9.18-4.14
		c-4.2,0-7.27,1.38-9.21,4.14C302.36,14.68,301.39,18.48,301.39,23.32z"/>
</g>
</svg>
