<?xml version="1.0" encoding="utf-8"?>
<!-- Generator: Adobe Illustrator 25.0.0, SVG Export Plug-In . SVG Version: 6.00 Build 0)  -->
<svg version="1.1" id="Layer_1" xmlns="http://www.w3.org/2000/svg" xmlns:xlink="http://www.w3.org/1999/xlink" x="0px" y="0px"
	 viewBox="0 0 595.28 841.89" style="enable-background:new 0 0 595.28 841.89;" xml:space="preserve">
<style type="text/css">
	.st0{fill:#009640;}
	.st1{fill:#006633;}
</style>
<g>
	<circle class="st0" cx="167.77" cy="321.34" r="76.06"/>
	<circle class="st0" cx="397.28" cy="321.34" r="76.06"/>
	<g>
		<path class="st0" d="M284.52,474.67c-27.62-39.35-66.97-63.97-110.64-63.97c-83.58,0-151.33,90.11-151.33,201.26
			c0,2.96,0.06,5.91,0.15,8.84h130.83h90.45c-0.1-2.93-0.15-5.88-0.15-8.84C243.83,558.89,259.28,510.63,284.52,474.67z"/>
		<path class="st0" d="M395.16,410.7c-43.67,0-83.02,24.61-110.64,63.97c25.24,35.96,40.69,84.22,40.69,137.29
			c0,2.96-0.06,5.91-0.15,8.84h221.28c0.1-2.93,0.15-5.88,0.15-8.84C546.49,500.81,478.74,410.7,395.16,410.7z"/>
		<path class="st1" d="M284.52,474.67c-25.24,35.96-40.69,84.22-40.69,137.29c0,2.96,0.06,5.91,0.15,8.84h81.08
			c0.1-2.93,0.15-5.88,0.15-8.84C325.21,558.89,309.76,510.63,284.52,474.67z"/>
		<polygon class="st0" points="22.55,620.81 22.55,716.55 153.54,620.81 22.71,620.81 		"/>
	</g>
</g>
</svg>
